grf
version=1
nRows=15
nColumns=37
inDegrees=no
endheader
time	ground_force_1_vx	ground_force_1_vy	ground_force_1_vz	ground_force_1_px	ground_force_1_py	ground_force_1_pz	ground_moment_1_mx	ground_moment_1_my	ground_moment_1_mz	ground_force_2_vx	ground_force_2_vy	ground_force_2_vz	ground_force_2_px	ground_force_2_py	ground_force_2_pz	ground_moment_2_mx	ground_moment_2_my	ground_moment_2_mz	ground_force_3_vx	ground_force_3_vy	ground_force_3_vz	ground_force_3_px	ground_force_3_py	ground_force_3_pz	ground_moment_3_mx	ground_moment_3_my	ground_moment_3_mz	ground_force_4_vx	ground_force_4_vy	ground_force_4_vz	ground_force_4_px	ground_force_4_py	ground_force_4_pz	ground_moment_4_mx	ground_moment_4_my	ground_moment_4_mz
      0.00000000	      0.00000000	     -0.00000000	      0.00000000	      0.00000000	      0.00000000	      0.00000000	      0.00000000	      0.00000000	      0.00000000	     -3.96702027	     31.65361786	   -291.09167480	   -283.43046092	  -1078.45610858	      0.00000000	      0.00000000	      0.00000000	   3871.81430379	     -1.01070921	    -33.22632209	   -330.17910767	   -284.66912111	   -758.73660106	      0.00000000	      0.00000000	     -0.00000000	  -3892.64306086	      0.00000000	     -0.00000000	      0.00000000	      0.00000000	      0.00000000	      0.00000000	      0.00000000	      0.00000000	      0.00000000
      0.01000000	      0.00000000	     -0.00000000	      0.00000000	      0.00000000	      0.00000000	      0.00000000	      0.00000000	      0.00000000	      0.00000000	     -3.96725011	     31.26118088	   -290.12695312	   -284.10795045	  -1078.92080514	      0.00000000	      0.00000000	      0.00000000	   3784.21728358	     -1.17688442	    -32.80276860	   -329.01693726	   -285.05664895	   -760.00781173	      0.00000000	      0.00000000	     -0.00000000	  -3936.00020527	      0.00000000	     -0.00000000	      0.00000000	      0.00000000	      0.00000000	      0.00000000	      0.00000000	      0.00000000	      0.00000000
      0.02000000	      0.00000000	     -0.00000000	      0.00000000	      0.00000000	      0.00000000	      0.00000000	      0.00000000	      0.00000000	      0.00000000	     -3.85482144	     31.17218208	   -291.28051758	   -284.46451845	  -1080.11585679	      0.00000000	      0.00000000	      0.00000000	   3593.55908186	     -1.41404249	    -32.96739947	   -329.69165039	   -285.85703417	   -759.29632082	      0.00000000	      0.00000000	     -0.00000000	  -3808.40653931	      0.00000000	     -0.00000000	      0.00000000	      0.00000000	      0.00000000	      0.00000000	      0.00000000	      0.00000000	      0.00000000
      0.03000000	      0.00000000	     -0.00000000	      0.00000000	      0.00000000	      0.00000000	      0.00000000	      0.00000000	      0.00000000	      0.00000000	     -3.27739310	     31.12551689	   -289.17904663	   -286.09519072	  -1076.12023372	      0.00000000	      0.00000000	      0.00000000	   3735.90055810	     -0.95739097	    -32.82394401	   -330.92321777	   -285.62077828	   -758.52325478	      0.00000000	      0.00000000	     -0.00000000	  -3863.08467667	      0.00000000	     -0.00000000	      0.00000000	      0.00000000	      0.00000000	      0.00000000	      0.00000000	      0.00000000	      0.00000000
      0.04000000	      0.00000000	     -0.00000000	      0.00000000	      0.00000000	      0.00000000	      0.00000000	      0.00000000	      0.00000000	      0.00000000	     -3.09910345	     30.97473526	   -291.18927002	   -285.51846476	  -1080.00811324	      0.00000000	      0.00000000	      0.00000000	   3651.41302896	     -0.91488055	    -33.15811531	   -329.85659790	   -286.28255455	   -760.02807200	      0.00000000	      0.00000000	     -0.00000000	  -3807.69151314	      0.00000000	     -0.00000000	      0.00000000	      0.00000000	      0.00000000	      0.00000000	      0.00000000	      0.00000000	      0.00000000
      0.05000000	      0.00000000	     -0.00000000	      0.00000000	      0.00000000	      0.00000000	      0.00000000	      0.00000000	      0.00000000	      0.00000000	     -2.83158755	     31.19564056	   -292.40618896	   -287.67510113	  -1079.32221539	      0.00000000	     -0.00000000	      0.00000000	   3689.58266626	     -0.90627810	    -33.05538933	   -329.43246460	   -286.13264987	   -759.96523035	      0.00000000	      0.00000000	     -0.00000000	  -3703.83819641	      0.00000000	     -0.00000000	      0.00000000	      0.00000000	      0.00000000	      0.00000000	      0.00000000	      0.00000000	      0.00000000
      0.06000000	      0.00000000	     -0.00000000	      0.00000000	      0.00000000	      0.00000000	      0.00000000	      0.00000000	      0.00000000	      0.00000000	     -2.83171868	     30.81897926	   -291.20251465	   -288.07103911	  -1079.24308550	      0.00000000	      0.00000000	      0.00000000	   3640.81368056	     -0.70968914	    -32.74787515	   -329.76684570	   -287.37923008	   -759.53958022	      0.00000000	      0.00000000	     -0.00000000	  -3779.20038729	      0.00000000	     -0.00000000	      0.00000000	      0.00000000	      0.00000000	      0.00000000	      0.00000000	      0.00000000	      0.00000000
      0.07000000	      0.00000000	     -0.00000000	      0.00000000	      0.00000000	      0.00000000	      0.00000000	      0.00000000	      0.00000000	      0.00000000	     -2.56418753	     30.64041710	   -290.07092285	   -289.00115097	  -1078.27195203	      0.00000000	      0.00000000	      0.00000000	   3477.39772941	     -0.75249802	    -32.58762353	   -330.19494629	   -287.67036043	   -759.27518142	      0.00000000	      0.00000000	     -0.00000000	  -3645.91146823	      0.00000000	     -0.00000000	      0.00000000	      0.00000000	      0.00000000	      0.00000000	      0.00000000	      0.00000000	      0.00000000
      0.08000000	      0.00000000	     -0.00000000	      0.00000000	      0.00000000	      0.00000000	      0.00000000	      0.00000000	      0.00000000	      0.00000000	     -2.34027719	     30.28355217	   -291.27526855	   -289.60429768	  -1079.69601660	      0.00000000	      0.00000000	      0.00000000	   3519.52567715	     -0.54983298	    -32.45690913	   -330.03817749	   -287.89266763	   -760.52965373	      0.00000000	      0.00000000	     -0.00000000	  -3687.76809086	      0.00000000	     -0.00000000	      0.00000000	      0.00000000	      0.00000000	      0.00000000	      0.00000000	      0.00000000	      0.00000000
      0.09000000	      0.00000000	     -0.00000000	      0.00000000	      0.00000000	      0.00000000	      0.00000000	      0.00000000	      0.00000000	      0.00000000	     -1.96263123	     30.01427841	   -290.12820435	   -290.09863404	  -1078.27757052	      0.00000000	      0.00000000	      0.00000000	   3453.78625729	     -0.37756781	    -32.50455090	   -331.06802368	   -288.60860315	   -758.83942994	      0.00000000	      0.00000000	     -0.00000000	  -3727.06768840	      0.00000000	     -0.00000000	      0.00000000	      0.00000000	      0.00000000	      0.00000000	      0.00000000	      0.00000000	      0.00000000
      0.10000000	      0.00000000	     -0.00000000	      0.00000000	      0.00000000	      0.00000000	      0.00000000	      0.00000000	      0.00000000	      0.00000000	     -1.98417592	     29.76955414	   -288.99047852	   -290.52581260	  -1077.30978158	      0.00000000	      0.00000000	      0.00000000	   3447.02872959	     -0.77250188	    -32.01578896	   -330.98925781	   -289.77094495	   -759.98074635	      0.00000000	      0.00000000	     -0.00000000	  -3498.14860780	      0.00000000	     -0.00000000	      0.00000000	      0.00000000	      0.00000000	      0.00000000	      0.00000000	      0.00000000	      0.00000000
      0.11000000	      0.00000000	     -0.00000000	      0.00000000	      0.00000000	      0.00000000	      0.00000000	      0.00000000	      0.00000000	      0.00000000	     -1.65005946	     29.70220375	   -288.63699341	   -292.12845429	  -1078.27091495	      0.00000000	      0.00000000	      0.00000000	   3346.61408513	     -0.39854395	    -31.66528889	   -332.13177490	   -289.96484543	   -759.54922375	      0.00000000	      0.00000000	     -0.00000000	  -3476.19796889	      0.00000000	     -0.00000000	      0.00000000	      0.00000000	      0.00000000	      0.00000000	      0.00000000	      0.00000000	      0.00000000
      0.12000000	      0.00000000	     -0.00000000	      0.00000000	      0.00000000	      0.00000000	      0.00000000	      0.00000000	      0.00000000	      0.00000000	     -1.29362476	     29.07868576	   -288.54742432	   -293.07429095	  -1078.37383357	      0.00000000	      0.00000000	      0.00000000	   3300.54192255	      0.31008881	    -31.42024234	   -330.56164551	   -290.50195321	   -761.37727103	      0.00000000	     -0.00000000	     -0.00000000	  -3573.21693673	      0.00000000	     -0.00000000	      0.00000000	      0.00000000	      0.00000000	      0.00000000	      0.00000000	      0.00000000	      0.00000000
      0.13000000	      0.00000000	     -0.00000000	      0.00000000	      0.00000000	      0.00000000	      0.00000000	      0.00000000	      0.00000000	      0.00000000	     -1.22609043	     28.34283447	   -286.78210449	   -294.09987405	  -1077.37653720	      0.00000000	      0.00000000	      0.00000000	   3227.02878480	      0.22194102	    -31.39852526	   -332.47732544	   -292.09776494	   -760.32781267	      0.00000000	      0.00000000	     -0.00000000	  -3351.37313192	      0.00000000	     -0.00000000	      0.00000000	      0.00000000	      0.00000000	      0.00000000	      0.00000000	      0.00000000	      0.00000000
      0.14000000	      0.00000000	     -0.00000000	      0.00000000	      0.00000000	      0.00000000	      0.00000000	      0.00000000	      0.00000000	      0.00000000	     -0.64488345	     28.18727875	   -287.75085449	   -295.12752630	  -1076.33552458	      0.00000000	      0.00000000	      0.00000000	   3364.62857380	      0.62078477	    -31.22162252	   -332.39163208	   -292.64194002	   -760.92408093	      0.00000000	      0.00000000	     -0.00000000	  -3448.86790635	      0.00000000	     -0.00000000	      0.00000000	      0.00000000	      0.00000000	      0.00000000	      0.00000000	      0.00000000	      0.00000000
